<svg width="30" height="30" viewBox="0 0 30 30" fill="none" xmlns="http://www.w3.org/2000/svg">
<path d="M10.0044 15L10.0044 10C10.0044 7.23858 12.243 5 15.0044 5V5C17.7658 5 20.0044 7.23858 20.0044 10L20.0044 15" stroke="black" stroke-width="2" stroke-linecap="round"/>
<path d="M4.69874 14.9178C4.84382 13.1769 4.91636 12.3065 5.49044 11.7782C6.06453 11.25 6.93799 11.25 8.68493 11.25H21.3239C23.0708 11.25 23.9443 11.25 24.5183 11.7782C25.0924 12.3065 25.165 13.1769 25.31 14.9178L26.0739 24.0839C26.1583 25.0974 26.2006 25.6042 25.9035 25.9271C25.6064 26.25 25.0978 26.25 24.0808 26.25H5.92799C4.91094 26.25 4.40241 26.25 4.10531 25.9271C3.80821 25.6042 3.85044 25.0974 3.9349 24.0839L4.69874 14.9178Z" stroke="black" stroke-width="2"/>
</svg>
