<svg width="60" height="60" viewBox="0 0 60 60" fill="none" xmlns="http://www.w3.org/2000/svg">
<circle cx="30" cy="30" r="21" fill="white" fill-opacity="0.8"/>
<mask id="mask0_340_666" style="mask-type:alpha" maskUnits="userSpaceOnUse" x="0" y="0" width="60" height="60">
<rect x="60" y="60" width="60" height="60" transform="rotate(-180 60 60)" fill="#D9D9D9"/>
</mask>
<g mask="url(#mask0_340_666)">
<path d="M26.001 30L33.6885 22.3125L32.501 21.0625L23.5635 30L32.501 38.9375L33.6885 37.6875L26.001 30ZM29.9904 8.25C32.9974 8.25 35.8251 8.82063 38.4735 9.96188C41.1218 11.1031 43.4254 12.6521 45.3841 14.6088C47.3433 16.5654 48.8941 18.866 50.0366 21.5106C51.1795 24.1556 51.751 26.9819 51.751 29.9894C51.751 32.9965 51.1804 35.8242 50.0391 38.4725C48.8979 41.1208 47.3489 43.4244 45.3922 45.3831C43.4356 47.3423 41.1349 48.8931 38.4904 50.0356C35.8454 51.1785 33.0191 51.75 30.0116 51.75C27.0045 51.75 24.1768 51.1794 21.5285 50.0381C18.8801 48.8969 16.5766 47.3479 14.6179 45.3912C12.6587 43.4346 11.1079 41.134 9.96536 38.4894C8.82244 35.8444 8.25098 33.0181 8.25098 30.0106C8.25098 27.0035 8.82161 24.1758 9.96286 21.5275C11.1041 18.8792 12.6531 16.5756 14.6097 14.6169C16.5664 12.6577 18.867 11.1069 21.5116 9.96437C24.1566 8.82146 26.9829 8.25 29.9904 8.25ZM30.001 10C24.4176 10 19.6885 11.9375 15.8135 15.8125C11.9385 19.6875 10.001 24.4167 10.001 30C10.001 35.5833 11.9385 40.3125 15.8135 44.1875C19.6885 48.0625 24.4176 50 30.001 50C35.5843 50 40.3135 48.0625 44.1885 44.1875C48.0635 40.3125 50.001 35.5833 50.001 30C50.001 24.4167 48.0635 19.6875 44.1885 15.8125C40.3135 11.9375 35.5843 10 30.001 10Z" fill="#485131"/>
</g>
</svg>
