<svg width="30" height="30" viewBox="0 0 30 30" fill="none" xmlns="http://www.w3.org/2000/svg">
<mask id="mask0_146_3186" style="mask-type:alpha" maskUnits="userSpaceOnUse" x="0" y="0" width="31" height="30">
<rect x="0.00439453" width="30" height="30" fill="#D9D9D9"/>
</mask>
<g mask="url(#mask0_146_3186)">
<path d="M15.0044 26.25C13.4563 26.25 11.9979 25.954 10.6294 25.3619C9.26085 24.7696 8.06898 23.9658 7.05377 22.9506C6.03856 21.9354 5.23481 20.7435 4.64252 19.375C4.05044 18.0065 3.75439 16.5481 3.75439 15C3.75439 13.4471 4.05044 11.9875 4.64252 10.6213C5.23481 9.25521 6.03856 8.06458 7.05377 7.04938C8.06898 6.03417 9.26085 5.23042 10.6294 4.63812C11.9979 4.04604 13.4563 3.75 15.0044 3.75C16.5573 3.75 18.0169 4.04604 19.3831 4.63812C20.7492 5.23042 21.9398 6.03417 22.955 7.04938C23.9702 8.06458 24.774 9.25521 25.3663 10.6213C25.9584 11.9875 26.2544 13.4471 26.2544 15C26.2544 16.5481 25.9584 18.0065 25.3663 19.375C24.774 20.7435 23.9702 21.9354 22.955 22.9506C21.9398 23.9658 20.7492 24.7696 19.3831 25.3619C18.0169 25.954 16.5573 26.25 15.0044 26.25ZM15.0044 25.0097C15.7384 24.0674 16.3434 23.1419 16.8194 22.2331C17.2952 21.3246 17.6822 20.3078 17.9803 19.1828H12.0285C12.3587 20.3718 12.7537 21.4206 13.2135 22.3294C13.6735 23.2379 14.2704 24.1314 15.0044 25.0097ZM13.4131 24.8222C12.8298 24.1347 12.2973 23.2849 11.8156 22.2728C11.3342 21.2607 10.9756 20.2307 10.74 19.1828H5.94658C6.66304 20.7372 7.67867 22.012 8.99346 23.0072C10.3085 24.0024 11.7817 24.6074 13.4131 24.8222ZM16.5956 24.8222C18.2271 24.6074 19.7003 24.0024 21.0153 23.0072C22.3301 22.012 23.3457 20.7372 24.0622 19.1828H19.2688C18.9531 20.2468 18.5545 21.2848 18.0728 22.2969C17.5914 23.309 17.099 24.1507 16.5956 24.8222ZM5.43721 17.9328H10.4803C10.3857 17.4199 10.3189 16.9202 10.2797 16.4338C10.2403 15.9475 10.2206 15.4696 10.2206 15C10.2206 14.5304 10.2403 14.0525 10.2797 13.5663C10.3189 13.0798 10.3857 12.5801 10.4803 12.0672H5.43721C5.30096 12.4999 5.19471 12.9715 5.11846 13.4819C5.04242 13.9923 5.00439 14.4983 5.00439 15C5.00439 15.5017 5.04242 16.0077 5.11846 16.5181C5.19471 17.0285 5.30096 17.5001 5.43721 17.9328ZM11.7303 17.9328H18.2785C18.373 17.4199 18.4399 16.9282 18.4791 16.4578C18.5185 15.9876 18.5381 15.5017 18.5381 15C18.5381 14.4983 18.5185 14.0124 18.4791 13.5422C18.4399 13.0718 18.373 12.5801 18.2785 12.0672H11.7303C11.6357 12.5801 11.5689 13.0718 11.5297 13.5422C11.4903 14.0124 11.4706 14.4983 11.4706 15C11.4706 15.5017 11.4903 15.9876 11.5297 16.4578C11.5689 16.9282 11.6357 17.4199 11.7303 17.9328ZM19.5285 17.9328H24.5716C24.7078 17.5001 24.8141 17.0285 24.8903 16.5181C24.9664 16.0077 25.0044 15.5017 25.0044 15C25.0044 14.4983 24.9664 13.9923 24.8903 13.4819C24.8141 12.9715 24.7078 12.4999 24.5716 12.0672H19.5285C19.623 12.5801 19.6899 13.0798 19.7291 13.5663C19.7685 14.0525 19.7881 14.5304 19.7881 15C19.7881 15.4696 19.7685 15.9475 19.7291 16.4338C19.6899 16.9202 19.623 17.4199 19.5285 17.9328ZM19.2688 10.8172H24.0622C23.3297 9.23073 22.3261 7.95594 21.0513 6.99281C19.7765 6.02969 18.2913 5.41667 16.5956 5.15375C17.179 5.92146 17.7035 6.79927 18.1691 7.78719C18.6347 8.77531 19.0013 9.78531 19.2688 10.8172ZM12.0285 10.8172H17.9803C17.6501 9.64427 17.243 8.58344 16.7591 7.63469C16.2751 6.68594 15.6902 5.80448 15.0044 4.99031C14.3186 5.80448 13.7337 6.68594 13.2497 7.63469C12.7657 8.58344 12.3587 9.64427 12.0285 10.8172ZM5.94658 10.8172H10.74C11.0075 9.78531 11.3741 8.77531 11.8397 7.78719C12.3053 6.79927 12.8298 5.92146 13.4131 5.15375C11.7015 5.41667 10.2123 6.03365 8.94564 7.00469C7.67877 7.97594 6.67908 9.24677 5.94658 10.8172Z" fill="#5F5F5F"/>
</g>
</svg>
