<svg width="18" height="18" viewBox="0 0 18 18" fill="none" xmlns="http://www.w3.org/2000/svg">
<mask id="mask0_84_2904" style="mask-type:alpha" maskUnits="userSpaceOnUse" x="0" y="0" width="18" height="18">
<rect width="18" height="18" fill="#D9D9D9"/>
</mask>
<g mask="url(#mask0_84_2904)">
<path d="M9.0002 8.89894C9.37333 8.89894 9.69233 8.76606 9.9572 8.50031C10.2222 8.23456 10.3547 7.91512 10.3547 7.542C10.3547 7.16887 10.2218 6.84981 9.95608 6.58481C9.69033 6.31994 9.37083 6.1875 8.99758 6.1875C8.62445 6.1875 8.30545 6.32038 8.04058 6.58613C7.77558 6.85188 7.64308 7.17138 7.64308 7.54463C7.64308 7.91775 7.77595 8.23675 8.0417 8.50163C8.30745 8.7665 8.62695 8.89894 9.0002 8.89894ZM8.99889 14.6351C10.4661 13.3216 11.589 12.0618 12.3673 10.8555C13.1457 9.64925 13.5349 8.59275 13.5349 7.686C13.5349 6.31875 13.1005 5.19475 12.2318 4.314C11.363 3.43325 10.2854 2.99287 8.99889 2.99287C7.71239 2.99287 6.63477 3.43325 5.76602 4.314C4.89727 5.19475 4.46289 6.31875 4.46289 7.686C4.46289 8.59275 4.85208 9.64925 5.63045 10.8555C6.40883 12.0618 7.53164 13.3216 8.99889 14.6351ZM8.99889 16.1321C7.11139 14.4966 5.69602 12.9746 4.75277 11.5659C3.80952 10.1572 3.33789 8.86387 3.33789 7.686C3.33789 5.95525 3.8977 4.55406 5.01733 3.48244C6.13708 2.41081 7.46427 1.875 8.99889 1.875C10.5335 1.875 11.8607 2.41081 12.9805 3.48244C14.1001 4.55406 14.6599 5.95525 14.6599 7.686C14.6599 8.86387 14.1883 10.1572 13.245 11.5659C12.3018 12.9746 10.8864 14.4966 8.99889 16.1321Z" fill="#5F5F5F"/>
</g>
</svg>
