<svg width="64" height="64" viewBox="0 0 64 64" fill="none" xmlns="http://www.w3.org/2000/svg">
<path d="M31.8804 63.2967C31.6006 63.2967 31.3323 63.1856 31.1344 62.9877C30.9366 62.7899 30.8254 62.5216 30.8254 62.2418V47.9649C30.8254 47.6851 30.9366 47.4167 31.1344 47.2189C31.3323 47.0211 31.6006 46.9099 31.8804 46.9099C32.1602 46.9099 32.4285 47.0211 32.6263 47.2189C32.8242 47.4167 32.9353 47.6851 32.9353 47.9649V62.2137C32.9391 62.3545 32.9146 62.4948 32.8632 62.626C32.8119 62.7573 32.7348 62.8769 32.6365 62.9779C32.5381 63.0788 32.4206 63.1591 32.2907 63.2138C32.1608 63.2686 32.0213 63.2968 31.8804 63.2967Z" fill="#9D9D9D"/>
<path d="M31.8805 63.2967C31.6212 63.2971 31.3708 63.202 31.1772 63.0295L24.8475 57.4875C24.7436 57.3951 24.6589 57.2832 24.5982 57.1581C24.5376 57.0331 24.5022 56.8972 24.494 56.7585C24.4859 56.6197 24.5051 56.4807 24.5507 56.3493C24.5962 56.218 24.6672 56.0969 24.7596 55.993C24.8519 55.8891 24.9639 55.8044 25.089 55.7438C25.214 55.6831 25.3498 55.6477 25.4886 55.6395C25.6274 55.6314 25.7664 55.6506 25.8978 55.6962C26.0291 55.7417 26.1502 55.8127 26.2541 55.9051L32.5838 61.4471C32.6886 61.5373 32.7745 61.6473 32.8366 61.7709C32.8987 61.8945 32.9357 62.0291 32.9455 62.1671C32.9553 62.305 32.9377 62.4436 32.8938 62.5747C32.8498 62.7058 32.7803 62.8269 32.6893 62.931C32.5885 63.0464 32.4641 63.1387 32.3246 63.2018C32.1851 63.2649 32.0336 63.2973 31.8805 63.2967Z" fill="#9D9D9D"/>
<path d="M31.8804 63.2967C31.6649 63.2987 31.4539 63.2346 31.2759 63.113C31.0979 62.9914 30.9614 62.8183 30.8848 62.6168C30.8082 62.4153 30.7951 62.1952 30.8474 61.986C30.8997 61.7769 31.0147 61.5888 31.1771 61.4471L37.5068 55.9051C37.6107 55.8127 37.7318 55.7417 37.8631 55.6962C37.9945 55.6506 38.1335 55.6314 38.2723 55.6395C38.411 55.6477 38.5469 55.6831 38.6719 55.7438C38.797 55.8044 38.909 55.8891 39.0013 55.993C39.0937 56.0969 39.1647 56.218 39.2102 56.3493C39.2558 56.4807 39.275 56.6197 39.2669 56.7585C39.2587 56.8972 39.2233 57.0331 39.1627 57.1581C39.102 57.2832 39.0173 57.3951 38.9134 57.4875L32.5837 63.0295C32.3912 63.2037 32.1401 63.2991 31.8804 63.2967Z" fill="#9D9D9D"/>
<path d="M35.7698 42.7112H27.9843C25.167 42.7075 22.4662 41.5867 20.4741 39.5946C18.482 37.6025 17.3612 34.9016 17.3574 32.0844V11.6888C17.3547 10.2908 17.6274 8.90599 18.16 7.61346C18.6927 6.32093 19.4748 5.14602 20.4616 4.15587C21.4485 3.16573 22.6208 2.37974 23.9116 1.84284C25.2024 1.30594 26.5863 1.02865 27.9843 1.0268H35.7698C37.1668 1.02496 38.5505 1.29841 39.8418 1.83154C41.1332 2.36468 42.3068 3.14704 43.2956 4.13392C44.2845 5.12081 45.0692 6.29287 45.6048 7.58313C46.1405 8.87339 46.4167 10.2566 46.4177 11.6536V32.0844C46.4167 33.4814 46.1405 34.8646 45.6048 36.1549C45.0692 37.4451 44.2845 38.6172 43.2956 39.6041C42.3068 40.591 41.1332 41.3733 39.8418 41.9065C38.5505 42.4396 37.1668 42.713 35.7698 42.7112ZM27.9843 3.13669C25.726 3.13856 23.5608 4.03647 21.9639 5.6333C20.3671 7.23013 19.4692 9.39536 19.4673 11.6536V32.0844C19.4711 34.3421 20.3696 36.5062 21.966 38.1026C23.5624 39.6991 25.7266 40.5976 27.9843 40.6013H35.7698C36.8897 40.6032 37.9991 40.3843 39.0344 39.9572C40.0698 39.5301 41.0108 38.9031 41.8037 38.1122C42.5966 37.3212 43.2259 36.3817 43.6556 35.3475C44.0852 34.3132 44.3069 33.2044 44.3078 32.0844V11.6888C44.3115 10.5659 44.0933 9.45325 43.6657 8.41491C43.2381 7.37657 42.6096 6.43294 41.8162 5.63825C41.0228 4.84356 40.0802 4.21347 39.0426 3.78417C38.0049 3.35487 36.8927 3.13483 35.7698 3.13669H27.9843Z" fill="#9D9D9D"/>
<path d="M31.8804 18.5459C31.6006 18.5459 31.3323 18.4348 31.1344 18.2369C30.9366 18.0391 30.8254 17.7708 30.8254 17.491V12.1951C30.8254 11.9154 30.9366 11.647 31.1344 11.4492C31.3323 11.2513 31.6006 11.1402 31.8804 11.1402C32.1602 11.1402 32.4285 11.2513 32.6263 11.4492C32.8242 11.647 32.9353 11.9154 32.9353 12.1951V17.491C32.9353 17.7708 32.8242 18.0391 32.6263 18.2369C32.4285 18.4348 32.1602 18.5459 31.8804 18.5459Z" fill="#9D9D9D"/>
</svg>
