<svg width="56" height="18" viewBox="0 0 56 18" fill="none" xmlns="http://www.w3.org/2000/svg">
<g clip-path="url(#clip0_385_641)">
<path d="M18.3087 8.98515C18.3087 13.7333 14.3691 17.5 9.42163 17.5C4.63705 17.5 0.646504 13.6341 0.646504 9.00498C0.636324 4.28661 4.61669 0.490107 9.55397 0.500019C14.3895 0.509932 18.3087 4.30643 18.3087 8.98515ZM7.7623 8.72743C7.80302 8.71751 7.85392 8.7076 7.89464 8.68778C8.00662 8.82655 8.1186 8.96533 8.23058 9.11401C8.84138 9.94667 9.44199 10.7892 10.063 11.612C10.4498 12.1274 10.7552 12.8411 11.2846 13.0889C11.8343 13.3467 12.608 13.1682 13.29 13.1782C13.3104 13.1782 13.3206 13.1782 13.3409 13.1782C13.6565 13.2079 13.799 13.0889 13.799 12.7618C13.7888 10.254 13.7888 7.74608 13.799 5.23821C13.799 4.90119 13.6463 4.82189 13.3409 4.8318C12.8116 4.85162 12.2924 4.86154 11.763 4.8318C11.3355 4.80206 11.2438 4.98049 11.254 5.34725C11.2744 6.50702 11.2642 7.65687 11.2642 8.81664C11.2642 9.00498 11.2438 9.19331 11.2235 9.37174C10.9893 9.24288 10.8672 9.09419 10.7552 8.9455C9.84919 7.70643 8.95336 6.46737 8.04734 5.2283C7.94554 5.08952 7.80302 4.87145 7.67068 4.86154C6.8461 4.8318 6.02153 4.84171 5.16641 4.84171C5.16641 7.57757 5.16641 10.2341 5.17659 12.8907C5.17659 12.9898 5.40055 13.1583 5.52271 13.1682C6.08261 13.198 6.6425 13.1583 7.2024 13.1881C7.61978 13.2079 7.7623 13.0889 7.7623 12.6627C7.73176 11.5128 7.75212 10.3531 7.75212 9.19331C7.74194 9.04463 7.75212 8.88603 7.7623 8.72743Z" fill="#221E20"/>
<path d="M24.8846 12.286C24.8846 13.2475 24.8643 14.1495 24.8948 15.0615C24.905 15.4877 24.7727 15.6661 24.3146 15.6364C23.8463 15.6067 23.3678 15.6067 22.8894 15.6364C22.4313 15.6661 22.3091 15.4877 22.3091 15.0615C22.3295 12.3355 22.3193 9.60958 22.3193 6.88363C22.3193 5.96176 22.3295 5.02999 22.3091 4.10812C22.2989 3.72153 22.4414 3.56293 22.8385 3.58276C23.2762 3.60258 23.7241 3.60258 24.1619 3.59267C24.5996 3.57284 24.9457 3.62241 24.7421 4.30637C26.1673 3.37459 27.5925 3.16643 29.0991 3.64223C30.1171 3.96934 30.9112 4.58392 31.522 5.4364C32.7843 7.21074 32.6723 9.59966 31.2573 11.3443C29.8117 13.1186 27.7452 13.4358 24.8846 12.286ZM24.5691 8.24165C24.5691 9.60958 25.3936 10.7297 26.5847 10.9973C27.9793 11.3046 29.2824 10.6207 29.7608 9.33203C30.2902 7.8848 29.6998 6.23931 28.4476 5.65448C26.5338 4.76235 24.5589 6.08071 24.5691 8.24165Z" fill="#221E20"/>
<path d="M41.0621 12.2365C38.0488 13.4656 35.8907 13.079 34.435 11.0866C33.0505 9.19331 33.2032 6.60614 34.7709 4.91109C36.1147 3.46386 38.6291 2.71051 41.0214 4.19739C40.9909 3.50351 41.4591 3.55308 41.9172 3.58281C42.1514 3.59273 42.3957 3.58281 42.6298 3.58281C43.6478 3.58281 43.546 3.4936 43.546 4.44521C43.546 7.04229 43.5358 9.62946 43.5562 12.2265C43.5562 12.6924 43.434 12.9006 42.925 12.851C42.5586 12.8213 42.1819 12.8411 41.8053 12.8411C41.3777 12.851 40.9298 12.9006 41.0621 12.2365ZM41.3573 8.43996C41.3472 6.91343 40.6346 5.87261 39.5046 5.51576C38.2524 5.11926 36.8883 5.64462 36.2979 6.76474C35.626 8.04346 35.9518 9.7385 37.0512 10.5414C37.9369 11.1857 38.9141 11.2353 39.8812 10.7694C40.9501 10.2639 41.3268 9.31226 41.3573 8.43996Z" fill="#221E20"/>
<path d="M44.7051 3.59268C45.6315 3.59268 46.4255 3.57286 47.2195 3.61251C47.3722 3.62242 47.5555 3.86032 47.6471 4.02883C48.4513 5.59502 49.2352 7.1612 50.0292 8.73729C50.1005 8.87606 50.1819 9.02475 50.2939 9.23292C50.864 7.98394 51.4035 6.81426 51.9329 5.64458C52.1772 5.09939 52.4317 4.56411 52.6658 4.00901C52.788 3.71163 52.961 3.57286 53.3072 3.58277C53.9587 3.6026 54.6204 3.59268 55.3737 3.59268C55.2922 3.83058 55.2515 3.98918 55.1803 4.12796C53.4802 7.81542 51.7802 11.5029 50.0903 15.1904C49.9478 15.4976 49.7747 15.6463 49.4082 15.6364C48.7567 15.6067 48.095 15.6265 47.3417 15.6265C47.4435 15.3589 47.4944 15.1804 47.5758 15.002C48.0034 14.0702 48.4309 13.1285 48.889 12.2067C49.0417 11.9093 49.0214 11.6714 48.8585 11.3839C47.5657 8.9851 46.283 6.58627 45.0003 4.18744C44.9189 4.02883 44.8476 3.87023 44.7051 3.59268Z" fill="#221E20"/>
</g>
<defs>
<clipPath id="clip0_385_641">
<rect width="54.7275" height="17" fill="white" transform="translate(0.636719 0.5)"/>
</clipPath>
</defs>
</svg>
