<svg width="19" height="16" viewBox="0 0 19 16" fill="none" xmlns="http://www.w3.org/2000/svg">
<path d="M9.5 12.5035C10.5448 12.5035 11.4278 12.1602 12.149 11.4737C12.8702 10.7872 13.2308 9.94667 13.2308 8.95207C13.2308 7.95747 12.8702 7.11692 12.149 6.43043C11.4278 5.74393 10.5448 5.40069 9.5 5.40069C8.45517 5.40069 7.57217 5.74393 6.851 6.43043C6.12983 7.11692 5.76925 7.95747 5.76925 8.95207C5.76925 9.94667 6.12983 10.7872 6.851 11.4737C7.57217 12.1602 8.45517 12.5035 9.5 12.5035ZM9.5 11.5515C8.723 11.5515 8.07367 11.3032 7.552 10.8064C7.03017 10.3098 6.76925 9.69172 6.76925 8.95207C6.76925 8.21243 7.03017 7.59431 7.552 7.09773C8.07367 6.60098 8.723 6.35261 9.5 6.35261C10.277 6.35261 10.9263 6.60098 11.448 7.09773C11.9698 7.59431 12.2308 8.21243 12.2308 8.95207C12.2308 9.69172 11.9698 10.3098 11.448 10.8064C10.9263 11.3032 10.277 11.5515 9.5 11.5515ZM2.1155 15.6155C1.65517 15.6155 1.27083 15.4688 0.9625 15.1753C0.654167 14.8818 0.5 14.5159 0.5 14.0777V3.82644C0.5 3.38824 0.654167 3.02239 0.9625 2.72888C1.27083 2.43537 1.65517 2.28861 2.1155 2.28861H5.073L6.923 0.384766H12.077L13.927 2.28861H16.8845C17.3448 2.28861 17.7292 2.43537 18.0375 2.72888C18.3458 3.02239 18.5 3.38824 18.5 3.82644V14.0777C18.5 14.5159 18.3458 14.8818 18.0375 15.1753C17.7292 15.4688 17.3448 15.6155 16.8845 15.6155H2.1155ZM2.1155 14.6636H16.8845C17.064 14.6636 17.2115 14.6087 17.327 14.4989C17.4423 14.389 17.5 14.2486 17.5 14.0777V3.82644C17.5 3.65557 17.4423 3.51516 17.327 3.40522C17.2115 3.29543 17.064 3.24054 16.8845 3.24054H13.4885L11.6443 1.33669H7.35575L5.5115 3.24054H2.1155C1.936 3.24054 1.7885 3.29543 1.673 3.40522C1.55767 3.51516 1.5 3.65557 1.5 3.82644V14.0777C1.5 14.2486 1.55767 14.389 1.673 14.4989C1.7885 14.6087 1.936 14.6636 2.1155 14.6636Z" fill="#9D9D9D"/>
</svg>
